Coordinates
version=1
nRows=4
nColumns=107
inDegrees=yes

Units are S.I. units (second, meters, Newtons, ...)
If the header above contains a line with 'inDegrees', this indicates whether rotational values are in degrees (yes) or radians (no).

endheader
time	sternoclavicular_r2	sternoclavicular_r3	unrotscap_r3	unrotscap_r2	acromioclavicular_r2	acromioclavicular_r3	acromioclavicular_r1	unrothum_r1	unrothum_r3	unrothum_r2	elv_angle	shoulder_elv	shoulder1_r2	shoulder_rot	elbow_flexion	pro_sup	deviation	flexion	proximal_distal_r1	proximal_distal_r3	cmc_flexion	cmc_abduction	mp_flexion	ip_flexion	mcp2_flexion	mcp2_abduction	pm2_flexion	md2_flexion	mcp3_flexion	mcp3_abduction	pm3_flexion	md3_flexion	mcp4_flexion	mcp4_abduction	pm4_flexion	md4_flexion	mcp5_flexion	mcp5_abduction	pm5_flexion	md5_flexion	bicpt_tx	bicpt_ty	bicpt_tz	bicpt2_tx	bicpt2_ty	bicpt2_tz	ptpt_tx	ptpt_ty	ptpt_tz	FCUpt_tx	FCUpt_ty	FCUpt_tz	EDCpt_tx	EDCpt_ty	EDCpt_tz	APLpt_tx	APLpt_ty	APLpt_tz	FPLpt_tx	FPLpt_ty	FPLpt_tz	FPLpt2_tx	FPLpt2_ty	FPLpt2_tz	PEC1pt2_tx	PEC1pt2_ty	PEC1pt2_tz	PEC1pt3_tx	PEC1pt3_ty	PEC1pt3_tz	PEC2pt2_tx	PEC2pt2_ty	PEC2pt2_tz	PEC2pt3_tx	PEC2pt3_ty	PEC2pt3_tz	PEC3pt2_tx	PEC3pt2_ty	PEC3pt2_tz	PEC3pt3_tx	PEC3pt3_ty	PEC3pt3_tz	DELT2pt2a_tx	DELT2pt2a_ty	DELT2pt2a_tz	DELT2pt2_tx	DELT2pt2_ty	DELT2pt2_tz	LAT1pt2_tx	LAT1pt2_ty	LAT1pt2_tz	LAT1pt3_tx	LAT1pt3_ty	LAT1pt3_tz	LAT2pt2_tx	LAT2pt2_ty	LAT2pt2_tz	LAT2pt3_tx	LAT2pt3_ty	LAT2pt3_tz	LAT3pt2_tx	LAT3pt2_ty	LAT3pt2_tz	LAT3pt3_tx	LAT3pt3_ty	LAT3pt3_tz
      1.60000000	     -0.30978669	      0.13121102	     -0.13121102	      0.30978669	     -0.06272550	      0.50692546	      0.22785951	     -0.22785951	     -0.50692546	      0.06272550	    104.06350102	     73.34475356	     -1.81625072	    -45.53850043	     29.49703744	     78.04145595	      0.33383675	     -0.51619179	      0.36184379	     -0.25809589	     19.67286015	    -12.80022158	    -16.35524526	    -22.91918753	     27.04390914	     10.28294849	     45.63184806	     61.11508778	     39.07020780	      3.84513871	     44.45575893	     40.47561173	     36.63231230	     -7.97621951	     59.84872145	     39.67973273	     44.02471809	    -13.56964951	     51.85372045	      5.30049848	      0.00087567	     -0.03098081	     -0.00484456	      0.01499012	     -0.01821301	     -0.00239452	      0.00178362	     -0.06862864	     -0.00633666	      0.01183353	     -0.18249825	     -0.00011156	     -0.00936495	      0.00315105	     -0.00051883	      0.00030500	      0.00012200	      0.00061000	      0.00039040	      0.00117120	      0.00065880	      0.00001263	     -0.00027681	     -0.00033218	      0.00240408	      0.00843465	      0.00586759	     -0.00786419	      0.01898816	     -0.01801023	      0.00240408	      0.00843465	      0.00586759	      0.00052971	      0.01760276	     -0.00924960	      0.00383964	      0.00469040	      0.01569686	      0.00000000	      0.00719071	      0.00000000	     -0.00688626	     -0.03182350	     -0.00592556	      0.02415171	     -0.00131500	     -0.01630502	     -0.00085569	      0.01434299	     -0.00586759	      0.00236333	      0.02069954	     -0.01711379	     -0.00574534	      0.01242787	     -0.00525638	     -0.01197965	      0.02624115	     -0.02937867	     -0.02249241	      0.01389477	     -0.00704925	     -0.01491345	      0.03031586	     -0.03671315
      1.63333333	     -0.30530382	      0.12931229	     -0.12931229	      0.30530382	     -0.06181781	      0.49958982	      0.22456219	     -0.22456219	     -0.49958982	      0.06181781	    105.47577526	     72.28339282	     -1.84089956	    -51.77719061	     31.19376684	     84.38264014	      0.35100466	     -0.32965717	      0.37551924	     -0.16482859	     17.22291839	    -12.18957829	    -13.35035227	    -16.45230149	     21.59919987	      8.59892316	     39.72302869	     43.82629545	     31.79127160	      2.99138470	     36.57583928	     32.93077495	     26.51911125	     -7.09051770	     54.51741442	     36.08511136	     31.34651513	    -13.46391429	     48.06739818	      5.41014411	      0.00093179	     -0.03117528	     -0.00487588	      0.01440410	     -0.01867394	     -0.00135118	      0.00131508	     -0.06893161	     -0.00684747	      0.01255261	     -0.18229213	      0.00004023	     -0.01012589	      0.00348966	     -0.00070599	      0.00024628	      0.00009851	      0.00049256	      0.00031524	      0.00094571	      0.00053196	      0.00001863	     -0.00026578	     -0.00031894	      0.00236929	      0.00831260	      0.00578268	     -0.00775039	      0.01871338	     -0.01774960	      0.00236929	      0.00831260	      0.00578268	      0.00052205	      0.01734803	     -0.00911575	      0.00379816	      0.00462253	      0.01558997	      0.00000000	      0.00698290	      0.00000000	     -0.00678661	     -0.03136299	     -0.00575287	      0.02536021	     -0.00154899	     -0.02035931	     -0.00084331	      0.01413543	     -0.00578268	      0.00232913	      0.02040000	     -0.01686614	     -0.00566220	      0.01224803	     -0.00518031	     -0.01180630	      0.02586141	     -0.02895354	     -0.02216693	      0.01369370	     -0.00694724	     -0.01469764	      0.02987716	     -0.03618188
      1.66666667	     -0.30492774	      0.12915300	     -0.12915300	      0.30492774	     -0.06174166	      0.49897441	      0.22428556	     -0.22428556	     -0.49897441	      0.06174166	    106.01104511	     72.19435203	     -1.85024178	    -53.44152892	     30.91717303	     84.75852395	      0.34869049	     -0.31308804	      0.37370473	     -0.15654402	     17.25530111	    -11.66158691	    -13.70588093	    -15.93483133	     18.82053023	      6.83599137	     33.55114347	     37.96885752	     26.97715433	      1.95515217	     30.34167989	     29.62089137	     19.44976017	     -6.66599504	     49.97120476	     34.11175660	     22.04854677	    -13.44544402	     45.64359286	      5.38642767	      0.00092264	     -0.03114358	     -0.00487078	      0.01436647	     -0.01859880	     -0.00128756	      0.00128730	     -0.06894956	     -0.00687775	      0.01259562	     -0.18227956	      0.00005018	     -0.01017100	      0.00351012	     -0.00071777	      0.00023825	      0.00009530	      0.00047649	      0.00030495	      0.00091486	      0.00051461	      0.00001855	     -0.00026600	     -0.00031920	      0.00236637	      0.00830236	      0.00577555	     -0.00774085	      0.01869033	     -0.01772774	      0.00236637	      0.00830236	      0.00577555	      0.00052140	      0.01732666	     -0.00910452	      0.00379466	      0.00461684	      0.01558088	      0.00000000	      0.00696561	      0.00000000	     -0.00677825	     -0.03132435	     -0.00573849	      0.02559467	     -0.00161181	     -0.02147238	     -0.00084227	      0.01411802	     -0.00577555	      0.00232626	      0.02037487	     -0.01684536	     -0.00565523	      0.01223294	     -0.00517393	     -0.01179175	      0.02582956	     -0.02891787	     -0.02213962	      0.01367683	     -0.00693869	     -0.01467953	      0.02984036	     -0.03613731
      1.70000000	     -0.30454142	      0.12898937	     -0.12898937	      0.30454142	     -0.06166344	      0.49834226	      0.22400142	     -0.22400142	     -0.49834226	      0.06166344	    106.35248945	     72.10288897	     -1.85620111	    -54.57965147	     30.86622877	     84.74471462	      0.34646044	     -0.28359619	      0.37194631	     -0.14179809	     16.12784472	    -11.44153899	    -13.00869600	    -14.34609110	     16.01285187	      5.28536267	     29.62477732	     32.24414241	     22.40894160	      1.09806070	     26.03208673	     26.86696104	     13.47033338	     -6.24742203	     45.89077338	     32.22484205	     13.91147446	    -13.35558426	     43.67218510	      5.36017967	      0.00092096	     -0.03113774	     -0.00486984	      0.01436787	     -0.01858496	     -0.00128990	      0.00128832	     -0.06894890	     -0.00687664	      0.01259404	     -0.18228002	      0.00004981	     -0.01016934	      0.00350937	     -0.00071734	      0.00022282	      0.00008913	      0.00044564	      0.00028521	      0.00085563	      0.00048129	      0.00002122	     -0.00025871	     -0.00031045	      0.00236337	      0.00829184	      0.00576824	     -0.00773104	      0.01866665	     -0.01770528	      0.00236337	      0.00829184	      0.00576824	      0.00052074	      0.01730471	     -0.00909298	      0.00379106	      0.00461099	      0.01557151	      0.00000000	      0.00694788	      0.00000000	     -0.00676967	     -0.03128467	     -0.00572375	      0.02573368	     -0.00165480	     -0.02223942	     -0.00084120	      0.01410013	     -0.00576824	      0.00232332	      0.02034905	     -0.01682402	     -0.00564806	      0.01221744	     -0.00516738	     -0.01177682	      0.02579683	     -0.02888124	     -0.02211157	      0.01365950	     -0.00692989	     -0.01466093	      0.02980255	     -0.03609153
